 http://img221.imageshack.us/img221/9819/ironclad2011.jpg

Country.......: USA, United Kingdom, Germany
Genre.........: Adventure, Drama, Action
Date release..: 04.03.2011 [World]
Director......: Jonathan English
Writers.......: Jonathan English, Erick Kastel
Duration......: 116 min.
More..........: http://www.imdb.com/title/tt1233301
Trailer.......: http://www.imdb.com/video/imdb/vi4273052697
Trailer.......:

Pilot :
In 13th-century England, a small group of Knights Templar fight to defend Rochester Castle against the tyrannical King John. 

Cats :
James Purefoy   	 ...  	Marshal
Brian Cox 	... 	Albany
Kate Mara 	... 	Isabel
Paul Giamatti 	... 	King John
Charles Dance 	... 	Archbishop Langdon
Jason Flemyng 	... 	Becket
Aneurin Barnard 	... 	Guy
Bree Condon 	... 	Agnes
Mackenzie Crook 	... 	Marks
Jamie Foreman 	... 	Coteral
Derek Jacobi 	... 	Cornhill
John Pierce Jones 	... 	Cook
Rhys Parry Jones 	... 	Wulfstan
Vladimir Kulich 	... 	Tiberius
David Melville 	... 	Baron Darnay 

Data Technical :
!!! SAMPLE !!!
Audio.....: Lector Polish
Subtitles.: None
Format                           : AVI
Format/Info                      : Audio Video Interleave
File size                        : 1.37 GiB
Duration                         : 1h 55mn
Overall bit rate                 : 1 690 Kbps
Writing application              : VirtualDubMod 1.5.10.2 (build 2540/release)
Writing library                  : VirtualDubMod build 2540/release
Video
ID                               : 0
Format                           : MPEG-4 Visual
Format profile                   : Advanced Simple@L5
Format settings, BVOP            : Yes
Format settings, QPel            : No
Format settings, GMC             : No warppoints
Format settings, Matrix          : Default (H.263)
Codec ID                         : XVID
Codec ID/Hint                    : XviD
Duration                         : 1h 55mn
Bit rate                         : 1 232 Kbps
Width                            : 640 pixels
Height                           : 352 pixels
Display aspect ratio             : 16:9
Frame rate                       : 25.000 fps
Color space                      : YUV
Chroma subsampling               : 4:2:0
Bit depth                        : 8 bits
Scan type                        : Progressive
Bits/(Pixel*Frame)               : 0.219
Stream size                      : 1 021 MiB (73%)
Writing library                  : XviD 1.2.1 (UTC 2008-12-04)
Audio
ID                               : 1
Format                           : AC-3
Format/Info                      : Audio Coding 3
Mode extension                   : CM (complete main)
Codec ID                         : 2000
Duration                         : 1h 55mn
Bit rate mode                    : Constant
Bit rate                         : 448 Kbps
Channel(s)                       : 6 channels
Channel positions                : Front: L C R, Side: L R, LFE
Sampling rate                    : 48.0 KHz
Bit depth                        : 16 bits
Stream size                      : 371 MiB (27%)
Alignment                        : Split accross interleaves
Interleave, duration             : 40 ms (1.00 video frame)
Interleave, preload duration     : 500 ms

Screen : 
http://img846.imageshack.us/img846/9485/ironclad2011s1.jpg 
http://img542.imageshack.us/img542/2372/ironclad2011s2.jpg 
http://img836.imageshack.us/img836/8233/ironclad2011s3.jpg 
http://img689.imageshack.us/img689/4361/ironclad2011s4.jpg 
http://img839.imageshack.us/img839/4205/ironclad2011s5.jpg